<svg id="Layer_1" data-name="Layer 1" xmlns="http://www.w3.org/2000/svg" viewBox="0 0 272.54 59.67"><title>consulting-logo</title><path d="M32.6,9.86l-.29,3.74-5.57-.29H24.15l-.24,17.23.24,9.7h-5L19.45,31l-.24-17.67H16.62L11,13.6l-.33-.43L11,9.42H32.31Z" transform="translate(-10.62 -9.09)" style="fill:#333"/><path d="M56.12,39.14l0,.57a22.59,22.59,0,0,1-4.36.87L51,40.14Q47.49,34.49,46,31.89l-4.22.05v.67L42,40.24H37.4l.19-7.2L37.4,16.19l9.12-.05a8.92,8.92,0,0,1,6,1.85,6.5,6.5,0,0,1,2.14,5.21,7.54,7.54,0,0,1-1.27,4.27,9.73,9.73,0,0,1-3.58,3.17Q52.62,34.81,56.12,39.14ZM41.87,28.24l4.17.14c2.53-.73,3.79-2.32,3.79-4.75a3.5,3.5,0,0,0-1.15-2.9,5.83,5.83,0,0,0-3.5-1L42,19.79Z" transform="translate(-10.62 -9.09)" style="fill:#333"/><path d="M77.24,36.4l.34.34-.39,3.5H61.78L62,33l-.2-16.85H77.34l.28.39-.33,3.5-6.1-.24-4.8.05-.09,6.24,4.6.05L75.08,26l.24.39L75,30l-4.51-.15-4.27.05,0,2.74.1,3.93,4.46.05Z" transform="translate(-10.62 -9.09)" style="fill:#333"/><path d="M93.85,40.24H88.33l-8.11-24h4.7l.67,3,5.47,16.65h.24l6.15-16.41.67-3.27h4.56Z" transform="translate(-10.62 -9.09)" style="fill:#333"/><path d="M124.59,19q2.91,3.11,2.91,8.71,0,6.24-3.1,9.6t-8.81,3.36q-5.32,0-8.21-3.16t-2.88-9q0-6,3.1-9.34t8.81-3.28C119.93,15.86,122.65,16.89,124.59,19Zm-13.68,2.64q-1.6,1.95-1.61,6.31c0,3.24.53,5.54,1.59,6.92s2.73,2.06,5,2.06,4-.65,5.13-1.94,1.64-3.42,1.64-6.36q0-4.8-1.59-6.87c-1-1.37-2.77-2.06-5.13-2.06S112,20.3,110.91,21.59Z" transform="translate(-10.62 -9.09)" style="fill:#333"/><path d="M152,39.14l0,.57a22.67,22.67,0,0,1-4.37.87l-.72-.44q-3.51-5.66-4.94-8.25l-4.23.05v.67l.19,7.63h-4.6l.19-7.2-.19-16.85,9.12-.05a8.92,8.92,0,0,1,6,1.85,6.53,6.53,0,0,1,2.14,5.21,7.55,7.55,0,0,1-1.28,4.27,9.7,9.7,0,0,1-3.57,3.17Q148.46,34.81,152,39.14Zm-14.26-10.9,4.18.14c2.52-.73,3.79-2.32,3.79-4.75a3.53,3.53,0,0,0-1.15-2.9,5.84,5.84,0,0,0-3.51-1l-3.17.09Z" transform="translate(-10.62 -9.09)" style="fill:#333"/><path d="M181.78,10.62,181,15.14l-.77.28A14,14,0,0,0,177,13.7a8.68,8.68,0,0,0-3.12-.63,5.22,5.22,0,0,0-3.74,1.3,4,4,0,0,0-1.4,3,3.35,3.35,0,0,0,1.4,2.76,23.34,23.34,0,0,0,4.37,2.47,47.06,47.06,0,0,1,4.19,2.26,9.46,9.46,0,0,1,2.77,2.66,6.84,6.84,0,0,1,1.15,4,8.21,8.21,0,0,1-1.37,4.59,9.53,9.53,0,0,1-3.84,3.31,12.5,12.5,0,0,1-5.64,1.22,19.22,19.22,0,0,1-4.37-.52,19.92,19.92,0,0,1-4.27-1.54l.62-4.9.63-.28a12,12,0,0,0,3.91,2.52,10.85,10.85,0,0,0,4,.84,5.78,5.78,0,0,0,4-1.32,4.08,4.08,0,0,0,1.49-3.15,3.57,3.57,0,0,0-1.44-3,24.14,24.14,0,0,0-4.41-2.52,42.15,42.15,0,0,1-4.13-2.18A9.12,9.12,0,0,1,165.06,22a6.7,6.7,0,0,1-1.13-3.94,8.17,8.17,0,0,1,1.34-4.56A9.23,9.23,0,0,1,169,10.26a12.29,12.29,0,0,1,5.47-1.17A18.71,18.71,0,0,1,181.78,10.62Z" transform="translate(-10.62 -9.09)" style="fill:#333"/><path d="M206.53,19q2.9,3.11,2.9,8.71,0,6.24-3.1,9.6t-8.8,3.36c-3.56,0-6.29-1-8.21-3.16s-2.88-5.11-2.88-9q0-6,3.09-9.34t8.81-3.28Q203.62,15.86,206.53,19Zm-13.68,2.64c-1.08,1.3-1.61,3.4-1.61,6.31,0,3.24.53,5.54,1.58,6.92s2.74,2.06,5,2.06,4-.65,5.14-1.94,1.63-3.42,1.63-6.36q0-4.8-1.58-6.87t-5.14-2.06Q194.46,19.65,192.85,21.59Z" transform="translate(-10.62 -9.09)" style="fill:#333"/><path d="M233.91,39.14l0,.57a22.59,22.59,0,0,1-4.36.87l-.73-.44q-3.5-5.66-4.94-8.25l-4.22.05v.67l.19,7.63h-4.61l.19-7.2-.19-16.85,9.12-.05a8.92,8.92,0,0,1,6,1.85,6.5,6.5,0,0,1,2.14,5.21,7.54,7.54,0,0,1-1.27,4.27,9.73,9.73,0,0,1-3.58,3.17Q230.41,34.81,233.91,39.14Zm-14.25-10.9,4.17.14c2.53-.73,3.79-2.32,3.79-4.75a3.5,3.5,0,0,0-1.15-2.9,5.83,5.83,0,0,0-3.5-1l-3.17.09Z" transform="translate(-10.62 -9.09)" style="fill:#333"/><path d="M255,36.4l.34.34-.39,3.5H239.57l.2-7.2-.2-16.85h15.56l.29.39-.34,3.5-6.1-.24-4.8.05-.09,6.24,4.6.05,4.18-.15.24.39L252.82,30l-4.51-.15-4.27.05,0,2.74.1,3.93,4.46.05Z" transform="translate(-10.62 -9.09)" style="fill:#333"/><path d="M274.42,36.78l-.33,3.46H260.74l.19-7.2-.19-16.85h4.71l-.24,16.42,0,3.79h8.88Z" transform="translate(-10.62 -9.09)" style="fill:#333"/><path d="M282.49,22.94a2.7,2.7,0,0,1,.67,1.94,2.89,2.89,0,0,1-.72,2.06,2.94,2.94,0,0,1-3.91,0,2.68,2.68,0,0,1-.7-2,2.78,2.78,0,0,1,.74-2,2.73,2.73,0,0,1,2-.77A2.48,2.48,0,0,1,282.49,22.94Zm0,12.81a2.73,2.73,0,0,1,.67,2,2.89,2.89,0,0,1-.72,2.06,2.94,2.94,0,0,1-3.91.05,2.7,2.7,0,0,1-.7-2,2.82,2.82,0,0,1,.74-2,2.72,2.72,0,0,1,2-.76A2.51,2.51,0,0,1,282.49,35.75Z" transform="translate(-10.62 -9.09)" style="fill:#bd0000"/><path d="M23.47,54.18l-.39,2.22-.36.09a7,7,0,0,0-1.59-1,4,4,0,0,0-1.56-.32,2.94,2.94,0,0,0-2,.68,2,2,0,0,0-.75,1.54,1.68,1.68,0,0,0,.74,1.41A12,12,0,0,0,19.78,60a20.15,20.15,0,0,1,2.15,1.08,4.78,4.78,0,0,1,1.38,1.28,3.16,3.16,0,0,1,.58,1.93,4,4,0,0,1-.63,2.18,4.5,4.5,0,0,1-1.84,1.62,6.36,6.36,0,0,1-2.9.61,10.17,10.17,0,0,1-2.2-.25,8.85,8.85,0,0,1-2.15-.77l.27-2.37.3-.12a6,6,0,0,0,2,1.31,5.46,5.46,0,0,0,2.08.46,3.12,3.12,0,0,0,2.07-.67,2.07,2.07,0,0,0,.81-1.64,1.69,1.69,0,0,0-.73-1.44A14.11,14.11,0,0,0,18.64,62a21.75,21.75,0,0,1-2.11-1,4.47,4.47,0,0,1-1.4-1.27,3.25,3.25,0,0,1-.57-1.94,3.79,3.79,0,0,1,.65-2.16A4.48,4.48,0,0,1,17,54a6.31,6.31,0,0,1,2.77-.57A9.93,9.93,0,0,1,23.47,54.18Z" transform="translate(-10.62 -9.09)" style="fill:#333"/><path d="M39.06,55.35a7.76,7.76,0,0,1,1.75,5.43,8.53,8.53,0,0,1-1.87,5.9,6.84,6.84,0,0,1-5.36,2.08,6.39,6.39,0,0,1-5-2,8.09,8.09,0,0,1-1.77-5.6,8.09,8.09,0,0,1,1.89-5.74,7,7,0,0,1,5.34-2A6.48,6.48,0,0,1,39.06,55.35ZM30.3,56.67a6.47,6.47,0,0,0-1.16,4.26,7.21,7.21,0,0,0,1.14,4.53,4.21,4.21,0,0,0,3.48,1.41,4.42,4.42,0,0,0,3.57-1.38,6.6,6.6,0,0,0,1.17-4.32,7,7,0,0,0-1.15-4.44,4.3,4.3,0,0,0-3.53-1.41A4.37,4.37,0,0,0,30.3,56.67Z" transform="translate(-10.62 -9.09)" style="fill:#333"/><path d="M46.93,55.44l0,4.92,2.58,0,2.64-.09.15.21-.15,1.71-2.85,0-2.4,0v1.65l.06,4.68H44.71l.06-4.5-.06-10.44h8.7l.12.18-.18,1.74-3.69-.12Z" transform="translate(-10.62 -9.09)" style="fill:#333"/><path d="M66.64,53.79l-.15,1.89-2.79-.21H62.2l-.09,8.4.09,4.68H60l.09-4.5L60,55.47h-1.5l-2.85.21-.18-.21.18-1.86H66.52Z" transform="translate(-10.62 -9.09)" style="fill:#333"/><path d="M84.49,68.55h-2.4l-2.94-8.16H79l-3.09,8.16h-2.4L68.59,53.61h2.25l.27,1.59,3.66,10.86h.15l3.27-8.73L77,53.61H79.3l.33,1.77,3.66,10.68h.18l4-10.74.36-1.71h2.19Z" transform="translate(-10.62 -9.09)" style="fill:#333"/><path d="M105,68.55h-2.25l-.36-1.62-.78-2.22-3.57,0-3.18,0L94,66.81l-.42,1.74H91.39l5.76-14.94h2.58Zm-4-5.67L98.47,55.8h-.18l-2.73,7.08,2.64,0Z" transform="translate(-10.62 -9.09)" style="fill:#333"/><path d="M119.62,68l0,.3a9.78,9.78,0,0,1-2.07.45l-.39-.24q-2.28-3.45-3.45-5.43l-2.82,0v.75l.06,4.68H108.7l.09-4.5-.09-10.44,5.1,0a5.4,5.4,0,0,1,3.65,1.11,4,4,0,0,1,1.27,3.21,4.7,4.7,0,0,1-.82,2.73,5.58,5.58,0,0,1-2.33,1.89A63.4,63.4,0,0,0,119.62,68Zm-8.73-6.75,2.82.09a3.19,3.19,0,0,0,2.67-3.27,2.45,2.45,0,0,0-.78-2,3.84,3.84,0,0,0-2.37-.72l-2.31,0Z" transform="translate(-10.62 -9.09)" style="fill:#333"/><path d="M132.7,66.63l.18.18-.21,1.74h-9.09l.09-4.5-.09-10.44h9.15l.15.18-.18,1.74-3.78-.12-3.12,0,0,4.53,3,0,2.61-.09.15.21-.18,1.77-2.76-.09-2.79,0,0,2,0,2.85,2.94,0Z" transform="translate(-10.62 -9.09)" style="fill:#333"/><path d="M151.72,54.51l-.42,2.07-.27.09a5.71,5.71,0,0,0-1.74-1,6.19,6.19,0,0,0-2.13-.36,4.14,4.14,0,0,0-3.39,1.43A6.56,6.56,0,0,0,142.6,61a7,7,0,0,0,1.17,4.35,4,4,0,0,0,3.39,1.5,6.7,6.7,0,0,0,2.18-.37,7.41,7.41,0,0,0,2-1l.27.09-.21,2.07a8.85,8.85,0,0,1-4.29,1.11,6.47,6.47,0,0,1-5.07-2,8.09,8.09,0,0,1-1.77-5.6,8,8,0,0,1,1.88-5.7,6.87,6.87,0,0,1,5.29-2A8.53,8.53,0,0,1,151.72,54.51Z" transform="translate(-10.62 -9.09)" style="fill:#333"/><path d="M166.29,55.35A7.76,7.76,0,0,1,168,60.78a8.53,8.53,0,0,1-1.87,5.9,6.84,6.84,0,0,1-5.36,2.08,6.39,6.39,0,0,1-5-2A8.09,8.09,0,0,1,154,61.2a8.09,8.09,0,0,1,1.89-5.74,7,7,0,0,1,5.34-2A6.48,6.48,0,0,1,166.29,55.35Zm-8.76,1.32a6.47,6.47,0,0,0-1.16,4.26,7.21,7.21,0,0,0,1.14,4.53A4.21,4.21,0,0,0,161,66.87a4.42,4.42,0,0,0,3.57-1.38,6.6,6.6,0,0,0,1.17-4.32,7,7,0,0,0-1.15-4.44,4.3,4.3,0,0,0-3.53-1.41A4.37,4.37,0,0,0,157.53,56.67Z" transform="translate(-10.62 -9.09)" style="fill:#333"/><path d="M184.48,64.08l0,4.47h-2.4l-7.86-11.4h-.15l0,6.42.06,5h-2l.09-4.41-.06-10.53h2.37L182.35,65h.21L182.5,53.7l2.07-.15Z" transform="translate(-10.62 -9.09)" style="fill:#333"/><path d="M198,54.18l-.39,2.22-.36.09a7,7,0,0,0-1.59-1,4,4,0,0,0-1.56-.32,2.94,2.94,0,0,0-2,.68,2,2,0,0,0-.75,1.54,1.68,1.68,0,0,0,.74,1.41,12,12,0,0,0,2.26,1.2,20.15,20.15,0,0,1,2.15,1.08,4.78,4.78,0,0,1,1.38,1.28,3.16,3.16,0,0,1,.58,1.93,4,4,0,0,1-.63,2.18A4.5,4.5,0,0,1,196,68.12a6.36,6.36,0,0,1-2.9.61,10.17,10.17,0,0,1-2.2-.25,8.85,8.85,0,0,1-2.15-.77l.27-2.37.3-.12a6,6,0,0,0,2,1.31,5.46,5.46,0,0,0,2.08.46,3.12,3.12,0,0,0,2.07-.67,2.07,2.07,0,0,0,.81-1.64,1.69,1.69,0,0,0-.73-1.44,14.11,14.11,0,0,0-2.3-1.26,21.75,21.75,0,0,1-2.11-1,4.47,4.47,0,0,1-1.4-1.27,3.25,3.25,0,0,1-.57-1.94,3.79,3.79,0,0,1,.65-2.16A4.48,4.48,0,0,1,191.61,54a6.31,6.31,0,0,1,2.77-.57A9.93,9.93,0,0,1,198,54.18Z" transform="translate(-10.62 -9.09)" style="fill:#333"/><path d="M214.21,61.2v2.16a5,5,0,0,1-1.54,4,6.56,6.56,0,0,1-4.52,1.41,6.37,6.37,0,0,1-4.44-1.39,5,5,0,0,1-1.47-4l0-2.28,0-7.47h2.25L204.37,63a3.74,3.74,0,0,0,.95,2.85,4.91,4.91,0,0,0,5.83,0,3.71,3.71,0,0,0,1-2.85L212,53.61h2.28Z" transform="translate(-10.62 -9.09)" style="fill:#333"/><path d="M227.23,66.87l-.15,1.68h-8l.09-4.5-.09-10.44h2.25l-.09,10.26.06,2.79h5.76Z" transform="translate(-10.62 -9.09)" style="fill:#333"/><path d="M238.48,53.79l-.15,1.89-2.79-.21H234l-.09,8.4.09,4.68h-2.25l.09-4.5-.06-8.58h-1.5l-2.85.21-.18-.21.18-1.86h10.89Z" transform="translate(-10.62 -9.09)" style="fill:#333"/><path d="M252.13,68.55h-2.25l-.36-1.62-.78-2.22-3.57,0-3.18,0-.81,2.1-.42,1.74h-2.22l5.76-14.94h2.58Zm-4-5.67-2.49-7.08h-.18l-2.73,7.08,2.64,0Z" transform="translate(-10.62 -9.09)" style="fill:#333"/><path d="M268.24,64.08l0,4.47h-2.4L258,57.15h-.15l0,6.42.06,5h-2l.09-4.41-.06-10.53h2.37L266.11,65h.21l-.06-11.31,2.07-.15Z" transform="translate(-10.62 -9.09)" style="fill:#333"/><path d="M282.76,53.79l-.15,1.89-2.79-.21h-1.5l-.09,8.4.09,4.68h-2.25l.09-4.5-.06-8.58h-1.5l-2.85.21-.18-.21.18-1.86h10.89Z" transform="translate(-10.62 -9.09)" style="fill:#333"/></svg>